<svg width="119" height="40" viewBox="0 0 119 40" fill="none" xmlns="http://www.w3.org/2000/svg">
<path d="M49.83 32V7.7H55.98C57.04 7.7 58.02 7.79 58.92 7.97C59.82 8.15 60.61 8.47 61.29 8.93C61.99 9.39 62.52 10.03 62.88 10.85C63.26 11.65 63.45 12.7 63.45 14C63.45 14.98 63.31 15.82 63.03 16.52C62.75 17.2 62.35 17.74 61.83 18.14C61.31 18.54 60.67 18.81 59.91 18.95C60.85 19.09 61.64 19.41 62.28 19.91C62.92 20.41 63.4 21.07 63.72 21.89C64.04 22.71 64.2 23.7 64.2 24.86C64.2 26.08 64.04 27.14 63.72 28.04C63.42 28.94 62.97 29.68 62.37 30.26C61.77 30.84 61.03 31.28 60.15 31.58C59.27 31.86 58.25 32 57.09 32H49.83ZM54.78 28.52H56.16C57.4 28.52 58.25 28.21 58.71 27.59C59.19 26.97 59.43 26.04 59.43 24.8C59.43 23.84 59.32 23.08 59.1 22.52C58.88 21.94 58.52 21.52 58.02 21.26C57.54 20.98 56.89 20.84 56.07 20.84H54.78V28.52ZM54.78 17.51H56.01C56.87 17.51 57.52 17.39 57.96 17.15C58.4 16.89 58.7 16.51 58.86 16.01C59.04 15.49 59.13 14.86 59.13 14.12C59.13 13.38 59 12.79 58.74 12.35C58.5 11.89 58.12 11.56 57.6 11.36C57.1 11.16 56.46 11.06 55.68 11.06H54.78V17.51ZM66.4566 32V7.7H72.7566C74.3966 7.7 75.7966 7.89 76.9566 8.27C78.1366 8.63 79.0366 9.28 79.6566 10.22C80.2966 11.16 80.6166 12.46 80.6166 14.12C80.6166 15.12 80.5266 16.01 80.3466 16.79C80.1866 17.55 79.8866 18.22 79.4466 18.8C79.0266 19.36 78.4266 19.81 77.6466 20.15L81.0066 32H75.9366L73.1466 20.99H71.4066V32H66.4566ZM71.4066 18.05H72.8466C73.6466 18.05 74.2766 17.92 74.7366 17.66C75.1966 17.4 75.5166 17.01 75.6966 16.49C75.8966 15.95 75.9966 15.29 75.9966 14.51C75.9966 13.39 75.7866 12.54 75.3666 11.96C74.9666 11.36 74.2066 11.06 73.0866 11.06H71.4066V18.05ZM83.4068 32V7.7H88.3268V32H83.4068ZM90.548 32V28.94L96.728 11.06H90.848V7.7H101.678V10.4L95.318 28.64H101.708V32H90.548ZM102.539 32L107.249 7.7H112.739L117.419 32H112.829L111.959 26.66H108.119L107.189 32H102.539ZM108.569 23.63H111.479L110.009 13.82L108.569 23.63Z" fill="#262626"/>
<path d="M20 27.9994C15.5817 27.9994 12 24.4178 12 19.9997C12 15.5816 15.5817 12 20 12C24.4183 12 28 15.5816 28 19.9997C28 24.4178 24.4183 27.9994 20 27.9994Z" fill="#262626"/>
<path d="M4.50172 22.7316C2.18339 23.1404 0.594293 25.3798 1.48423 27.5592C2.72668 30.6018 4.70885 33.3126 7.2786 35.4309C10.9531 38.4597 15.5878 40.0782 20.3491 39.9952C25.1105 39.9121 29.6859 38.1328 33.2526 34.9775C35.7467 32.7709 37.6331 29.9924 38.7687 26.9084C39.5821 24.6993 37.9157 22.5167 35.5845 22.1891C33.2534 21.8615 31.1603 23.5583 30.0089 25.6115C29.3847 26.7244 28.5745 27.7341 27.6038 28.5929C25.5574 30.4034 22.9322 31.4241 20.2005 31.4719C17.4686 31.5195 14.8094 30.591 12.7011 28.853C11.701 28.0287 10.8561 27.0479 10.1934 25.9574C8.97105 23.9456 6.82005 22.3229 4.50172 22.7316Z" fill="#262626"/>
<path d="M39.8453 22.4985C39.9475 21.6798 40 20.8456 40 19.9993C40 8.95398 31.0457 0 20 0C8.95431 0 0 8.95398 0 19.9993C0 21.0855 0.0866 22.1515 0.25328 23.1908C1.17192 21.9332 2.60568 21.0355 4.15435 20.7624C5.82993 20.467 7.35277 20.8734 8.64036 21.633C8.56429 21.0994 8.52493 20.5539 8.52493 19.9993C8.52493 13.662 13.6625 8.52462 20 8.52462C26.3375 8.52462 31.4751 13.662 31.4751 19.9993C31.4751 20.4171 31.4527 20.8298 31.4092 21.236C32.6696 20.4317 34.1776 19.9721 35.8628 20.209C37.4196 20.4278 38.8833 21.2744 39.8453 22.4985Z" fill="#F3604C"/>
</svg>
